<?xml version="1.0" encoding="utf-8"?>
<!-- Generator: Adobe Illustrator 20.1.0, SVG Export Plug-In . SVG Version: 6.00 Build 0)  -->
<svg version="1.1" id="Layer_1" xmlns="http://www.w3.org/2000/svg" xmlns:xlink="http://www.w3.org/1999/xlink" x="0px" y="0px"
	 viewBox="0 0 209.3 279" style="enable-background:new 0 0 209.3 279;" xml:space="preserve">
<style type="text/css">
	.st0{fill:#5584A0;}
	.st1{fill:#EF4136;}
	.st2{fill:#7555A3;}
	.st3{fill:#414042;}
	.st4{fill:#4F55A5;}
	.st5{fill:none;stroke:#000000;stroke-miterlimit:10;}
	.st6{enable-background:new    ;}
	.st7{clip-path:url(#SVGID_2_);enable-background:new    ;}
	.st8{fill:#822223;}
	.st9{clip-path:url(#SVGID_4_);enable-background:new    ;}
	.st10{clip-path:url(#SVGID_6_);enable-background:new    ;}
	.st11{clip-path:url(#SVGID_8_);enable-background:new    ;}
	.st12{clip-path:url(#SVGID_10_);enable-background:new    ;}
	.st13{clip-path:url(#SVGID_12_);enable-background:new    ;}
	.st14{clip-path:url(#SVGID_14_);enable-background:new    ;}
	.st15{clip-path:url(#SVGID_16_);enable-background:new    ;}
	.st16{clip-path:url(#SVGID_18_);enable-background:new    ;}
	.st17{clip-path:url(#SVGID_20_);enable-background:new    ;}
	.st18{clip-path:url(#SVGID_22_);enable-background:new    ;}
	.st19{clip-path:url(#SVGID_24_);enable-background:new    ;}
	.st20{clip-path:url(#SVGID_26_);enable-background:new    ;}
	.st21{clip-path:url(#SVGID_28_);enable-background:new    ;}
	.st22{clip-path:url(#SVGID_30_);enable-background:new    ;}
	.st23{clip-path:url(#SVGID_32_);enable-background:new    ;}
	.st24{clip-path:url(#SVGID_34_);enable-background:new    ;}
	.st25{clip-path:url(#SVGID_36_);enable-background:new    ;}
	.st26{clip-path:url(#SVGID_38_);enable-background:new    ;}
	.st27{clip-path:url(#SVGID_40_);enable-background:new    ;}
	.st28{clip-path:url(#SVGID_42_);enable-background:new    ;}
	.st29{clip-path:url(#SVGID_44_);enable-background:new    ;}
	.st30{clip-path:url(#SVGID_46_);enable-background:new    ;}
	.st31{clip-path:url(#SVGID_48_);enable-background:new    ;}
	.st32{clip-path:url(#SVGID_50_);enable-background:new    ;}
	.st33{clip-path:url(#SVGID_52_);enable-background:new    ;}
	.st34{clip-path:url(#SVGID_54_);enable-background:new    ;}
	.st35{clip-path:url(#SVGID_56_);enable-background:new    ;}
	.st36{clip-path:url(#SVGID_58_);enable-background:new    ;}
	.st37{clip-path:url(#SVGID_60_);enable-background:new    ;}
	.st38{clip-path:url(#SVGID_62_);enable-background:new    ;}
	.st39{clip-path:url(#SVGID_64_);enable-background:new    ;}
	.st40{clip-path:url(#SVGID_66_);enable-background:new    ;}
	.st41{clip-path:url(#SVGID_68_);enable-background:new    ;}
	.st42{clip-path:url(#SVGID_70_);enable-background:new    ;}
	.st43{clip-path:url(#SVGID_72_);enable-background:new    ;}
	.st44{clip-path:url(#SVGID_74_);enable-background:new    ;}
	.st45{clip-path:url(#SVGID_76_);enable-background:new    ;}
	.st46{clip-path:url(#SVGID_78_);enable-background:new    ;}
	.st47{clip-path:url(#SVGID_80_);enable-background:new    ;}
	.st48{clip-path:url(#SVGID_82_);enable-background:new    ;}
	.st49{clip-path:url(#SVGID_84_);enable-background:new    ;}
	.st50{clip-path:url(#SVGID_86_);enable-background:new    ;}
	.st51{fill:#E72A26;}
	.st52{fill:#262262;}
	.st53{fill:#A15288;}
	.st54{fill:#529E85;}
	.st55{fill:#39B54A;}
	.st56{fill:#5651A2;}
	.st57{fill:#EC008C;}
	.st58{fill:#F7941D;}
	.st59{fill:none;stroke:#662D91;stroke-miterlimit:10;}
	.st60{fill:#FFFFFF;}
	.st61{fill:none;stroke:#F7941D;stroke-miterlimit:10;}
	.st62{fill:#B3B4DB;}
	.st63{fill:#181A46;}
	.st64{fill:#D2D2D1;}
	.st65{fill:#B5B5B6;}
	.st66{fill:#9E9CCD;}
	.st67{fill:#C57329;}
	.st68{fill:none;stroke:#F1F2F2;stroke-miterlimit:10;}
	.st69{fill:#FBB040;}
	.st70{opacity:0.2;}
	.st71{fill:#F15A29;}
	.st72{fill:#92278F;}
	.st73{fill:#92278F;stroke:#FBB040;stroke-miterlimit:10;}
	.st74{opacity:0.2;fill:#58595B;}
	.st75{fill:#422360;}
	.st76{fill:#7A1315;stroke:#000000;stroke-miterlimit:10;}
	.st77{fill:#3F2874;stroke:#000000;stroke-miterlimit:10;}
	.st78{fill:#2A296F;stroke:#000000;stroke-miterlimit:10;}
	.st79{fill:#287250;stroke:#000000;stroke-miterlimit:10;}
	.st80{fill:#3B783A;stroke:#000000;stroke-miterlimit:10;}
	.st81{fill:#775C25;stroke:#000000;stroke-miterlimit:10;}
	.st82{fill:#6E2965;stroke:#000000;stroke-miterlimit:10;}
	.st83{fill:#6E293C;stroke:#000000;stroke-miterlimit:10;}
	.st84{fill:#C04B2A;}
	.st85{opacity:0.3;}
	.st86{fill:#6D6E71;}
	.st87{fill:#9E1F63;}
	.st88{opacity:0.5;}
	
		.st89{fill-rule:evenodd;clip-rule:evenodd;fill:#FFFFFF;stroke:#58595B;stroke-width:2;stroke-linecap:round;stroke-linejoin:round;stroke-miterlimit:10;}
	.st90{fill:#FFFFFF;stroke:#58595B;stroke-width:2;stroke-linecap:round;stroke-linejoin:round;stroke-miterlimit:10;}
	.st91{fill:#FFFFFF;stroke:#EF4136;stroke-miterlimit:10;}
	.st92{fill-rule:evenodd;clip-rule:evenodd;fill:#F15A29;}
</style>
<g>
	<rect x="139.5" y="209.3" class="st1" width="69.8" height="69.8"/>
	<rect x="69.8" y="69.8" class="st1" width="69.8" height="69.8"/>
	<rect x="139.5" y="69.8" class="st1" width="69.8" height="69.8"/>
	<rect y="69.8" class="st1" width="69.8" height="69.8"/>
	<path class="st60" d="M78.5,134.3H76v-2.5V77.5V75h2.5h52.3h2.5v2.5v54.3v2.5h-2.5H78.5z M110.7,93.6h4v5h-13.1v-5h4V80H81v49.2
		h47.3V80h-17.6V93.6z"/>
	<path class="st60" d="M200.6,214.5h2.5v2.5v54.3v2.5h-2.5h-52.4h-2.5v-2.5V217v-2.5h2.5H200.6z M181.4,238.1h16.7v-18.5h-47.4v34.2
		h15.7v-2h5v9.1h-5v-2h-15.7v10h47.4v-25.6h-16.7v2h-5v-9.1h5V238.1z"/>
	<g>
		<polygon class="st60" points="33.8,101.1 33.8,101.1 28.3,101.1 28.3,101.1 28.3,101.1 24.7,101.1 24.7,113.8 37.4,113.8 
			37.4,101.1 33.8,101.1 		"/>
		<path class="st60" d="M63,114.7h-5V77.5V75h-2.5H6.8H4.2v2.5v54.3v2.5h2.6H63h2.6v-2.5v-14.6v-2.5H63z M60.5,129.2H9.3V80H53v34.7
			h-6.6v5h14.1V129.2z"/>
	</g>
	<rect x="69.8" class="st2" width="69.8" height="69.8"/>
	<rect class="st2" width="69.8" height="69.8"/>
	<g>
		<polygon class="st60" points="171.4,104.1 171.4,104.1 176.9,104.1 176.9,104.1 177,104.1 180.9,104.1 180.9,91.6 167.9,91.6 
			167.9,104.1 171.3,104.1 		"/>
		<path class="st60" d="M200.5,75h-52.3h-2.5v2.5v54.3v2.5h2.5h52.3h2.6v-2.5V77.5V75H200.5z M198,129.2h-21.1v-12.6h4v-5h-13.1v5h4
			v12.6h-21.1V80H198V129.2z"/>
	</g>
	<rect x="69.8" y="139.5" class="st1" width="69.8" height="69.8"/>
	<rect x="139.5" y="139.5" class="st1" width="69.8" height="69.8"/>
	<rect y="139.5" class="st1" width="69.8" height="69.8"/>
	<g>
		<polygon class="st60" points="171.4,173.9 171.4,173.8 176.9,173.8 176.9,173.9 177,173.8 180.9,173.8 180.9,161.3 167.9,161.3 
			167.9,173.8 171.3,173.8 		"/>
		<path class="st60" d="M200.5,144.8h-52.3h-2.5v2.5v54.3v2.5h2.5h52.3h2.6v-2.5v-54.3v-2.5H200.5z M198,199h-21.1v-12.6h4v-5h-13.1
			v5h4V199h-21.1v-49.3H198V199z"/>
	</g>
	<g>
		<path class="st60" d="M13.3,145l-9.1-0.5v57.3v2.6h2.6c16.6-1.5,33.1-3.1,49.2-4.5l2.6-0.5v-2v-23.1v-22.6V149
			C43.4,148.1,28.4,146.5,13.3,145z M53.5,174.2v20.6c-14.6,1.5-29.6,2.5-44.2,4v-24.6v-24.7c6.6,1,13.6,1.5,20.1,2h1.5l8,1
			c4.5,0.4,9.6,0.9,14.6,1.5V174.2z"/>
		<rect x="25.3" y="167.6" class="st60" width="12.6" height="13.1"/>
	</g>
	<g>
		<path class="st60" d="M129,168.3h-3v-21.1v-2.5h-2.6H80.3h-2.5v2.5v54.3v2.5h2.5h24.6H129h2.5v-2.5v-30.7v-2.6H129z M126.5,199
			h-18v-12h2v-5h-8.5v5h1.5v12H82.8v-49.2H121v19h-7.6v5h13.1V199z"/>
		<polygon class="st60" points="104.4,161.8 104.3,161.8 104.3,158.3 91.8,158.3 91.8,170.9 104.3,170.9 104.3,167.5 104.4,167.4 
			104.3,167.3 104.3,161.9 		"/>
	</g>
	<rect x="69.8" y="209.3" class="st1" width="69.8" height="69.8"/>
	<rect y="209.3" class="st1" width="69.8" height="69.8"/>
	<g>
		<path class="st60" d="M13.3,214.7l-9.1-0.5v57.3v2.6h2.6c16.6-1.5,33.1-3.1,49.2-4.5l2.6-0.5v-2v-23.1v-22.6v-2.6
			C43.4,217.8,28.4,216.3,13.3,214.7z M53.5,243.9v20.6c-14.6,1.5-29.6,2.5-44.2,4v-24.6v-24.7c6.6,1,13.6,1.5,20.1,2h1.5l8,1
			c4.5,0.4,9.6,0.9,14.6,1.5V243.9z"/>
		<rect x="25.3" y="237.4" class="st60" width="12.6" height="13.1"/>
	</g>
	<g>
		<path class="st60" d="M130.8,214.5H78.5H76v2.5v54.3v2.5h2.5h52.3h2.5v-2.5V217v-2.5H130.8z M128.3,268.8H81v-49.2h47.3V268.8z"/>
		<polygon class="st60" points="111.2,250.2 111.2,246.6 111.2,246.6 111.2,246.6 111.2,241.2 111.2,241.2 111.2,241.2 111.2,237.6 
			98.6,237.6 98.6,250.2 		"/>
	</g>
	<path class="st60" d="M55.9,5.3h2.6v2.5V62v2.5h-2.6H6.8H4.2V62V7.7V5.3h2.6H55.9z M34.9,23.9h5v2h13.6V10.3H9.3v49.2h44.2v-15
		H39.9v1.5h-5v-8.5h5v2h13.6v-8.5H39.9v1.5h-5V23.9z"/>
	<path class="st60" d="M130.8,5.3h2.5v2.5V62v2.5h-2.5H78.5H76V62V7.7V5.3h2.5H130.8z M115.4,21.3v5h-7.5l-3.1-16H81.1v49.2h16.3
		V31.4h5v28.1h25.8V10.3h-18.3l2,11H115.4z"/>
</g>
</svg>
