<?xml version="1.0" encoding="utf-8"?>
<!-- Generator: Adobe Illustrator 20.1.0, SVG Export Plug-In . SVG Version: 6.00 Build 0)  -->
<svg version="1.1" id="Layer_1" xmlns="http://www.w3.org/2000/svg" xmlns:xlink="http://www.w3.org/1999/xlink" x="0px" y="0px"
	 viewBox="0 0 88.5 58.4" style="enable-background:new 0 0 88.5 58.4;" xml:space="preserve">
<style type="text/css">
	.st0{fill:#5584A0;}
	.st1{fill:#EF4136;}
	.st2{fill:#7555A3;}
	.st3{fill:#414042;}
	.st4{fill:#4F55A5;}
	.st5{fill:none;stroke:#000000;stroke-miterlimit:10;}
	.st6{enable-background:new    ;}
	.st7{clip-path:url(#SVGID_2_);enable-background:new    ;}
	.st8{fill:#822223;}
	.st9{clip-path:url(#SVGID_4_);enable-background:new    ;}
	.st10{clip-path:url(#SVGID_6_);enable-background:new    ;}
	.st11{clip-path:url(#SVGID_8_);enable-background:new    ;}
	.st12{clip-path:url(#SVGID_10_);enable-background:new    ;}
	.st13{clip-path:url(#SVGID_12_);enable-background:new    ;}
	.st14{clip-path:url(#SVGID_14_);enable-background:new    ;}
	.st15{clip-path:url(#SVGID_16_);enable-background:new    ;}
	.st16{clip-path:url(#SVGID_18_);enable-background:new    ;}
	.st17{clip-path:url(#SVGID_20_);enable-background:new    ;}
	.st18{clip-path:url(#SVGID_22_);enable-background:new    ;}
	.st19{clip-path:url(#SVGID_24_);enable-background:new    ;}
	.st20{clip-path:url(#SVGID_26_);enable-background:new    ;}
	.st21{clip-path:url(#SVGID_28_);enable-background:new    ;}
	.st22{clip-path:url(#SVGID_30_);enable-background:new    ;}
	.st23{clip-path:url(#SVGID_32_);enable-background:new    ;}
	.st24{clip-path:url(#SVGID_34_);enable-background:new    ;}
	.st25{clip-path:url(#SVGID_36_);enable-background:new    ;}
	.st26{clip-path:url(#SVGID_38_);enable-background:new    ;}
	.st27{clip-path:url(#SVGID_40_);enable-background:new    ;}
	.st28{clip-path:url(#SVGID_42_);enable-background:new    ;}
	.st29{clip-path:url(#SVGID_44_);enable-background:new    ;}
	.st30{clip-path:url(#SVGID_46_);enable-background:new    ;}
	.st31{clip-path:url(#SVGID_48_);enable-background:new    ;}
	.st32{clip-path:url(#SVGID_50_);enable-background:new    ;}
	.st33{clip-path:url(#SVGID_52_);enable-background:new    ;}
	.st34{clip-path:url(#SVGID_54_);enable-background:new    ;}
	.st35{clip-path:url(#SVGID_56_);enable-background:new    ;}
	.st36{clip-path:url(#SVGID_58_);enable-background:new    ;}
	.st37{clip-path:url(#SVGID_60_);enable-background:new    ;}
	.st38{clip-path:url(#SVGID_62_);enable-background:new    ;}
	.st39{clip-path:url(#SVGID_64_);enable-background:new    ;}
	.st40{clip-path:url(#SVGID_66_);enable-background:new    ;}
	.st41{clip-path:url(#SVGID_68_);enable-background:new    ;}
	.st42{clip-path:url(#SVGID_70_);enable-background:new    ;}
	.st43{clip-path:url(#SVGID_72_);enable-background:new    ;}
	.st44{clip-path:url(#SVGID_74_);enable-background:new    ;}
	.st45{clip-path:url(#SVGID_76_);enable-background:new    ;}
	.st46{clip-path:url(#SVGID_78_);enable-background:new    ;}
	.st47{clip-path:url(#SVGID_80_);enable-background:new    ;}
	.st48{clip-path:url(#SVGID_82_);enable-background:new    ;}
	.st49{clip-path:url(#SVGID_84_);enable-background:new    ;}
	.st50{clip-path:url(#SVGID_86_);enable-background:new    ;}
	.st51{fill:#E72A26;}
	.st52{fill:#262262;}
	.st53{fill:#A15288;}
	.st54{fill:#529E85;}
	.st55{fill:#39B54A;}
	.st56{fill:#5651A2;}
	.st57{fill:#EC008C;}
	.st58{fill:#F7941D;}
	.st59{fill:none;stroke:#662D91;stroke-miterlimit:10;}
	.st60{fill:#FFFFFF;}
	.st61{fill:none;stroke:#F7941D;stroke-miterlimit:10;}
	.st62{fill:#B3B4DB;}
	.st63{fill:#181A46;}
	.st64{fill:#D2D2D1;}
	.st65{fill:#B5B5B6;}
	.st66{fill:#9E9CCD;}
	.st67{fill:#C57329;}
	.st68{fill:none;stroke:#F1F2F2;stroke-miterlimit:10;}
	.st69{fill:#FBB040;}
	.st70{opacity:0.2;}
	.st71{fill:#F15A29;}
	.st72{fill:#92278F;}
	.st73{fill:#92278F;stroke:#FBB040;stroke-miterlimit:10;}
	.st74{opacity:0.2;fill:#58595B;}
	.st75{fill:#422360;}
	.st76{fill:#7A1315;stroke:#000000;stroke-miterlimit:10;}
	.st77{fill:#3F2874;stroke:#000000;stroke-miterlimit:10;}
	.st78{fill:#2A296F;stroke:#000000;stroke-miterlimit:10;}
	.st79{fill:#287250;stroke:#000000;stroke-miterlimit:10;}
	.st80{fill:#3B783A;stroke:#000000;stroke-miterlimit:10;}
	.st81{fill:#775C25;stroke:#000000;stroke-miterlimit:10;}
	.st82{fill:#6E2965;stroke:#000000;stroke-miterlimit:10;}
	.st83{fill:#6E293C;stroke:#000000;stroke-miterlimit:10;}
	.st84{fill:#C04B2A;}
	.st85{opacity:0.3;}
	.st86{fill:#6D6E71;}
	.st87{fill:#9E1F63;}
	.st88{opacity:0.5;}
	
		.st89{fill-rule:evenodd;clip-rule:evenodd;fill:#FFFFFF;stroke:#58595B;stroke-width:2;stroke-linecap:round;stroke-linejoin:round;stroke-miterlimit:10;}
	.st90{fill:#FFFFFF;stroke:#58595B;stroke-width:2;stroke-linecap:round;stroke-linejoin:round;stroke-miterlimit:10;}
	.st91{fill:#FFFFFF;stroke:#EF4136;stroke-miterlimit:10;}
	.st92{fill-rule:evenodd;clip-rule:evenodd;fill:#F15A29;}
</style>
<g>
	<path class="st71" d="M29.2,49.2v9.1h-8.9C9.1,58.4,0,49.3,0,38.1v-4.6c0-11.2,9.1-20.3,20.3-20.3h0.8c-0.4,0.7-0.8,1.5-1.2,2.3
		c-1.7,3.5-2.6,7.3-2.6,11.4c0,5.3,1.5,10.3,4.2,14.5C23.5,44.5,26.1,47.2,29.2,49.2z"/>
	<path class="st71" d="M88.5,33.5v4.6c0,11.2-9.1,20.3-20.3,20.3h-8.9v-9.1c1-0.6,1.9-1.3,2.7-2.1c5.6-4.9,9.1-12.2,9.1-20.2
		c0-4.1-0.9-8-2.6-11.4c-0.4-0.8-0.7-1.5-1.2-2.3h0.8C79.5,13.2,88.5,22.3,88.5,33.5z"/>
	<path class="st71" d="M71.2,26.9c0,8-3.5,15.2-9.1,20.2c-0.9,0.8-1.8,1.5-2.7,2.1v9.1H29.2v-9.1c-3-2-5.6-4.7-7.6-7.8
		c-2.7-4.2-4.2-9.1-4.2-14.5c0-4.1,0.9-8,2.6-11.4c0.4-0.8,0.8-1.5,1.2-2.3h46.4c0.4,0.7,0.8,1.5,1.2,2.3
		C70.3,19,71.2,22.9,71.2,26.9z"/>
	<rect x="29.2" y="41.5" class="st60" width="30.2" height="16.9"/>
	<g>
		<path class="st60" d="M62.1,47.1c-0.9,0.8-1.8,1.5-2.7,2.1v0c-0.3,0.2-0.6,0.4-0.9,0.5c-0.3,0.2-0.6,0.4-0.9,0.6
			c-3.8,2.2-8.3,3.5-13,3.5h-0.3c-0.4,0-0.8,0-1.1,0c-0.3,0-0.6,0-0.9-0.1c-0.6-0.1-1.2-0.1-1.7-0.2c-0.6-0.1-1.1-0.2-1.7-0.3
			c-0.6-0.1-1.1-0.2-1.7-0.4c-0.5-0.2-1.1-0.3-1.6-0.5c-0.5-0.2-1-0.4-1.6-0.6c-0.6-0.3-1.2-0.6-1.8-0.9c-0.4-0.2-0.8-0.4-1.1-0.6
			c0,0-0.1,0-0.1-0.1c-0.3-0.2-0.6-0.3-0.8-0.5c-0.3-0.2-0.6-0.3-0.9-0.5v0c-3-2-5.6-4.7-7.6-7.8c2.4,1.3,4.9,2.4,7.6,3
			c2.2,0.5,4.4,0.8,6.8,0.8h0.3c5.1-0.1,9.8-1.4,13.9-3.7c0.1,0,0.1-0.1,0.2-0.1c1.3-0.8,2.6-1.6,3.8-2.6c0.5,0.9,1.1,1.8,1.8,2.7
			c1,1.3,2.2,2.5,3.4,3.6C60.2,45.8,61.1,46.5,62.1,47.1z"/>
		<path class="st84" d="M71.2,26.9c0,8-3.5,15.2-9.1,20.2c-1-0.6-1.9-1.3-2.7-2c-1.3-1.1-2.4-2.3-3.4-3.6c-0.7-0.9-1.3-1.8-1.8-2.7
			c-1.2,1-2.5,1.8-3.8,2.6c-0.1,0-0.1,0.1-0.2,0.1c-4.1,2.3-8.8,3.7-13.9,3.7h-0.3c-2.3,0-4.6-0.3-6.8-0.8c-2.7-0.6-5.3-1.7-7.6-3
			c-2.7-4.2-4.2-9.1-4.2-14.5c0-4.1,0.9-8,2.6-11.4c0.4-0.8,0.8-1.5,1.2-2.3C25.7,5.3,34.4,0,44.3,0C51,0,57.1,2.5,61.8,6.5
			c0.8,0.7,1.6,1.4,2.3,2.2c1.3,1.4,2.4,2.9,3.3,4.5c0.4,0.7,0.8,1.5,1.2,2.3C70.3,19,71.2,22.9,71.2,26.9z"/>
	</g>
	<path class="st85" d="M44.3,53.9L44.3,53.9L44.3,53.9l-4.5,1.4l-7.3,2.2c-1.6,0.5-3.2-0.7-3.2-2.4v-5.8h0c0.6,0.4,1.1,0.7,1.8,1.1
		c0.4,0.2,0.8,0.4,1.1,0.6c0.6,0.3,1.2,0.6,1.8,0.9c0.5,0.2,1,0.4,1.6,0.6c0.5,0.2,1.1,0.3,1.6,0.5c0.5,0.2,1.1,0.3,1.7,0.4
		c0.6,0.1,1.1,0.2,1.7,0.3c0.6,0.1,1.1,0.1,1.7,0.2c0.6,0,1.2,0.1,1.8,0.1H44.3z"/>
	<path class="st85" d="M59.4,49.2V55c0,1.7-1.6,2.9-3.2,2.4l-7.2-2.2l-4.6-1.4l-0.1,0h0.3c4.8-0.1,9.2-1.3,13-3.5
		c0.3-0.2,0.6-0.3,0.9-0.5C58.8,49.6,59.1,49.4,59.4,49.2L59.4,49.2z"/>
</g>
</svg>
